<mxfile host="app.diagrams.net" modified="2023-10-10T12:30:26.496Z" agent="Mozilla/5.0 (Windows NT 10.0; Win64; x64) AppleWebKit/537.36 (KHTML, like Gecko) Chrome/117.0.0.0 Safari/537.36" etag="hijeeRAC8kxk02NDq_0L" version="22.0.4" type="device">
  <diagram name="Page-1" id="Kw94nkuLWIEuF8FrerKN">
    <mxGraphModel dx="1221" dy="622" grid="1" gridSize="10" guides="1" tooltips="1" connect="1" arrows="1" fold="1" page="1" pageScale="1" pageWidth="827" pageHeight="1169" math="0" shadow="0">
      <root>
        <mxCell id="0" />
        <mxCell id="1" parent="0" />
        <mxCell id="Qu5GgFM-KOHoeXPj7MdU-22" value="" style="rounded=0;whiteSpace=wrap;html=1;fillColor=#e1d5e7;strokeColor=#9673a6;" parent="1" vertex="1">
          <mxGeometry x="30" y="540" width="1060" height="480" as="geometry" />
        </mxCell>
        <mxCell id="Qu5GgFM-KOHoeXPj7MdU-1" value="" style="rounded=0;whiteSpace=wrap;html=1;fillColor=#dae8fc;strokeColor=#6c8ebf;" parent="1" vertex="1">
          <mxGeometry x="50" y="585" width="1020" height="355" as="geometry" />
        </mxCell>
        <mxCell id="Qu5GgFM-KOHoeXPj7MdU-2" value="&lt;div style=&quot;border-color: var(--border-color); text-align: justify; line-height: 18px;&quot;&gt;&lt;b style=&quot;border-color: var(--border-color); background-color: initial;&quot;&gt;length of phrase (4 bytes)&lt;/b&gt;&lt;/div&gt;&lt;div style=&quot;border-color: var(--border-color); text-align: justify; line-height: 18px;&quot;&gt;&lt;b style=&quot;border-color: var(--border-color); background-color: initial;&quot;&gt;type:&amp;nbsp;&lt;/b&gt;int&amp;nbsp; &amp;nbsp;&lt;b style=&quot;border-color: var(--border-color);&quot;&gt;pos:&lt;/b&gt;&amp;nbsp;0&lt;/div&gt;&lt;div style=&quot;border-color: var(--border-color); text-align: justify; line-height: 18px;&quot;&gt;&lt;b style=&quot;border-color: var(--border-color); background-color: initial;&quot;&gt;binary:&amp;nbsp;&lt;/b&gt;0x00 0x00 0x0e 0x74&lt;/div&gt;&lt;div style=&quot;border-color: var(--border-color); text-align: justify; line-height: 18px;&quot;&gt;&lt;b style=&quot;border-color: var(--border-color); background-color: initial;&quot;&gt;value: &lt;/b&gt;&lt;span style=&quot;border-color: var(--border-color); background-color: initial;&quot;&gt;3700&lt;/span&gt;&lt;/div&gt;" style="rounded=0;whiteSpace=wrap;html=1;fillColor=#dae8fc;strokeColor=#6c8ebf;" parent="1" vertex="1">
          <mxGeometry x="51" y="585" width="429" height="75" as="geometry" />
        </mxCell>
        <mxCell id="Qu5GgFM-KOHoeXPj7MdU-7" value="&lt;div style=&quot;text-align: justify;&quot;&gt;&lt;b style=&quot;background-color: initial;&quot;&gt;version &amp;lt;1byte&amp;gt;&lt;/b&gt;&lt;/div&gt;&lt;div style=&quot;border-color: var(--border-color); text-align: justify; line-height: 18px;&quot;&gt;&lt;b style=&quot;border-color: var(--border-color); background-color: initial;&quot;&gt;type: &lt;/b&gt;&lt;span style=&quot;border-color: var(--border-color); background-color: initial;&quot;&gt;int&lt;/span&gt;&amp;nbsp; &amp;nbsp;&lt;b style=&quot;border-color: var(--border-color);&quot;&gt;pos:&lt;/b&gt;&amp;nbsp;4&lt;/div&gt;&lt;div style=&quot;border-color: var(--border-color); text-align: justify; line-height: 18px;&quot;&gt;&lt;b style=&quot;border-color: var(--border-color); background-color: initial;&quot;&gt;binary:&amp;nbsp;&lt;/b&gt;0x01&lt;/div&gt;&lt;div style=&quot;border-color: var(--border-color); text-align: justify; line-height: 18px;&quot;&gt;&lt;b style=&quot;border-color: var(--border-color); background-color: initial;&quot;&gt;value: 1&lt;/b&gt;&lt;/div&gt;" style="rounded=0;whiteSpace=wrap;html=1;fillColor=#dae8fc;strokeColor=#6c8ebf;" parent="1" vertex="1">
          <mxGeometry x="480" y="585" width="420" height="75" as="geometry" />
        </mxCell>
        <mxCell id="Qu5GgFM-KOHoeXPj7MdU-13" value="&lt;b&gt;&lt;font style=&quot;font-size: 25px;&quot;&gt;...&lt;/font&gt;&lt;/b&gt;" style="rounded=0;whiteSpace=wrap;html=1;fillColor=#d5e8d4;strokeColor=#82b366;" parent="1" vertex="1">
          <mxGeometry x="60" y="890" width="1000" height="40" as="geometry" />
        </mxCell>
        <mxCell id="Qu5GgFM-KOHoeXPj7MdU-23" value="&lt;font style=&quot;font-size: 17px;&quot;&gt;&lt;b&gt;Param Stream&lt;/b&gt;&lt;/font&gt;" style="text;html=1;strokeColor=none;fillColor=none;align=center;verticalAlign=middle;whiteSpace=wrap;rounded=0;" parent="1" vertex="1">
          <mxGeometry x="481" y="546.67" width="160" height="30" as="geometry" />
        </mxCell>
        <mxCell id="Qu5GgFM-KOHoeXPj7MdU-24" value="&lt;div style=&quot;text-align: justify; line-height: 150%;&quot;&gt;&lt;span style=&quot;background-color: initial;&quot;&gt;length of word(1-4 bytes)&lt;/span&gt;&lt;/div&gt;&lt;div style=&quot;text-align: justify; line-height: 150%;&quot;&gt;&lt;span style=&quot;background-color: initial;&quot;&gt;type: &lt;/span&gt;&lt;span style=&quot;background-color: initial;&quot;&gt;varint&amp;nbsp; &amp;nbsp;pos: &lt;span style=&quot;font-weight: 400;&quot;&gt;5&lt;/span&gt;&lt;/span&gt;&lt;/div&gt;&lt;div style=&quot;text-align: justify; line-height: 150%;&quot;&gt;&lt;span style=&quot;background-color: initial;&quot;&gt;binary:&amp;nbsp;&lt;/span&gt;&lt;span style=&quot;font-weight: normal;&quot;&gt;0x09&lt;/span&gt;&lt;/div&gt;&lt;div style=&quot;text-align: justify; line-height: 150%;&quot;&gt;&lt;span style=&quot;background-color: initial;&quot;&gt;value: &lt;span style=&quot;font-weight: normal;&quot;&gt;9&lt;/span&gt;&lt;/span&gt;&lt;span style=&quot;background-color: initial;&quot;&gt;&amp;nbsp;&lt;/span&gt;&lt;/div&gt;" style="rounded=0;whiteSpace=wrap;html=1;fillColor=#A6B5A5;strokeColor=#6c8ebf;align=center;fontStyle=1" parent="1" vertex="1">
          <mxGeometry x="60" y="680" width="150" height="100" as="geometry" />
        </mxCell>
        <mxCell id="Qu5GgFM-KOHoeXPj7MdU-25" value="&lt;b&gt;Phrase #1&lt;/b&gt;" style="text;html=1;strokeColor=none;fillColor=none;align=center;verticalAlign=middle;whiteSpace=wrap;rounded=0;" parent="1" vertex="1">
          <mxGeometry x="952.0046153846152" y="546.67" width="134.6153846153846" height="113.33333333333334" as="geometry" />
        </mxCell>
        <mxCell id="Qu5GgFM-KOHoeXPj7MdU-26" value="&lt;div style=&quot;text-align: justify;&quot;&gt;&lt;b style=&quot;background-color: initial; border-color: var(--border-color);&quot;&gt;param_name&lt;b style=&quot;text-align: justify; background-color: initial;&quot;&gt;&amp;nbsp;(18 bytes)&lt;/b&gt;&lt;/b&gt;&lt;/div&gt;&lt;div style=&quot;text-align: justify; line-height: 150%;&quot;&gt;&lt;b style=&quot;font-weight: bold; background-color: initial;&quot;&gt;type: &lt;/b&gt;&lt;span style=&quot;background-color: initial;&quot;&gt;string&amp;nbsp; &amp;nbsp;&lt;b&gt;pos:&lt;/b&gt;&amp;nbsp;6&lt;/span&gt;&lt;/div&gt;&lt;div style=&quot;text-align: justify; line-height: 150%;&quot;&gt;&lt;b style=&quot;font-weight: bold; background-color: initial;&quot;&gt;binary:&amp;nbsp;&lt;/b&gt;&lt;span style=&quot;background-color: initial;&quot;&gt;0x00 0x65 .. 0x00 0x6e&lt;/span&gt;&lt;/div&gt;&lt;div style=&quot;text-align: justify; line-height: 150%;&quot;&gt;&lt;b style=&quot;font-weight: bold; background-color: initial;&quot;&gt;value: &lt;/b&gt;&lt;span style=&quot;background-color: initial;&quot;&gt;exception&lt;/span&gt;&lt;/div&gt;" style="rounded=0;whiteSpace=wrap;html=1;fillColor=#d5e8d4;strokeColor=#82b366;align=center;" parent="1" vertex="1">
          <mxGeometry x="210" y="680" width="180" height="100" as="geometry" />
        </mxCell>
        <mxCell id="Qu5GgFM-KOHoeXPj7MdU-27" value="&lt;div style=&quot;text-align: justify;&quot;&gt;&lt;b style=&quot;background-color: initial; border-color: var(--border-color);&quot;&gt;param_index&lt;b style=&quot;text-align: justify; background-color: initial;&quot;&gt;&amp;nbsp;(1 byte)&lt;/b&gt;&lt;/b&gt;&lt;/div&gt;&lt;div style=&quot;text-align: justify; line-height: 150%;&quot;&gt;&lt;b style=&quot;font-weight: bold; background-color: initial;&quot;&gt;type: &lt;/b&gt;&lt;span style=&quot;background-color: initial;&quot;&gt;byte&amp;nbsp;&lt;/span&gt;&lt;span style=&quot;background-color: initial;&quot;&gt;&lt;b&gt;pos:&lt;/b&gt;&amp;nbsp;25&lt;/span&gt;&lt;/div&gt;&lt;div style=&quot;text-align: justify; line-height: 150%;&quot;&gt;&lt;b style=&quot;font-weight: bold; background-color: initial;&quot;&gt;binary:&amp;nbsp;&lt;/b&gt;0x00&lt;/div&gt;&lt;div style=&quot;text-align: justify; line-height: 150%;&quot;&gt;&lt;b style=&quot;font-weight: bold; background-color: initial;&quot;&gt;value:&amp;nbsp;&lt;/b&gt;&lt;span style=&quot;background-color: initial;&quot;&gt;0&lt;/span&gt;&lt;/div&gt;" style="rounded=0;whiteSpace=wrap;html=1;fillColor=#d5e8d4;strokeColor=#82b366;align=center;" parent="1" vertex="1">
          <mxGeometry x="390" y="680" width="130" height="100" as="geometry" />
        </mxCell>
        <mxCell id="Qu5GgFM-KOHoeXPj7MdU-28" value="&lt;div style=&quot;text-align: justify;&quot;&gt;&lt;b style=&quot;background-color: initial; border-color: var(--border-color);&quot;&gt;param_list&amp;nbsp;&lt;b style=&quot;text-align: justify; background-color: initial;&quot;&gt;(1 byte)&lt;/b&gt;&lt;/b&gt;&lt;/div&gt;&lt;div style=&quot;text-align: justify; line-height: 150%;&quot;&gt;&lt;b style=&quot;font-weight: bold; background-color: initial;&quot;&gt;type: &lt;/b&gt;&lt;span style=&quot;background-color: initial;&quot;&gt;byte&amp;nbsp;&lt;b&gt;pos:&lt;/b&gt;&amp;nbsp;26&lt;/span&gt;&lt;/div&gt;&lt;div style=&quot;text-align: justify; line-height: 150%;&quot;&gt;&lt;b style=&quot;font-weight: bold; background-color: initial;&quot;&gt;binary:&amp;nbsp;&lt;/b&gt;0x01&lt;/div&gt;&lt;div style=&quot;text-align: justify; line-height: 150%;&quot;&gt;&lt;b style=&quot;font-weight: bold; background-color: initial;&quot;&gt;value: &lt;/b&gt;&lt;span style=&quot;background-color: initial;&quot;&gt;1&lt;/span&gt;&lt;/div&gt;" style="rounded=0;whiteSpace=wrap;html=1;fillColor=#d5e8d4;strokeColor=#82b366;align=center;" parent="1" vertex="1">
          <mxGeometry x="520" y="680" width="120" height="100" as="geometry" />
        </mxCell>
        <mxCell id="Qu5GgFM-KOHoeXPj7MdU-29" value="&lt;div style=&quot;text-align: justify;&quot;&gt;&lt;b style=&quot;background-color: initial; border-color: var(--border-color);&quot;&gt;param_order&lt;b style=&quot;text-align: justify; background-color: initial;&quot;&gt;(1-4 byte)&lt;/b&gt;&lt;/b&gt;&lt;/div&gt;&lt;div style=&quot;text-align: justify; line-height: 150%;&quot;&gt;&lt;b style=&quot;font-weight: bold; background-color: initial;&quot;&gt;type: &lt;/b&gt;&lt;span style=&quot;background-color: initial;&quot;&gt;varint&amp;nbsp; &amp;nbsp;&lt;b&gt;pos:&lt;/b&gt;&amp;nbsp;27&lt;/span&gt;&lt;/div&gt;&lt;div style=&quot;text-align: justify; line-height: 150%;&quot;&gt;&lt;b style=&quot;font-weight: bold; background-color: initial;&quot;&gt;binary:&amp;nbsp;&lt;/b&gt;0x64&lt;/div&gt;&lt;div style=&quot;text-align: justify; line-height: 150%;&quot;&gt;&lt;b style=&quot;font-weight: bold; background-color: initial;&quot;&gt;value:&amp;nbsp;&lt;/b&gt;100&lt;/div&gt;" style="rounded=0;whiteSpace=wrap;html=1;fillColor=#d5e8d4;strokeColor=#82b366;align=center;" parent="1" vertex="1">
          <mxGeometry x="640" y="680" width="140" height="100" as="geometry" />
        </mxCell>
        <mxCell id="Qu5GgFM-KOHoeXPj7MdU-30" value="&lt;div style=&quot;text-align: justify; line-height: 150%;&quot;&gt;&lt;span style=&quot;background-color: initial;&quot;&gt;length of signature&lt;/span&gt;&lt;/div&gt;&lt;div style=&quot;text-align: justify; line-height: 150%;&quot;&gt;&lt;span style=&quot;background-color: initial;&quot;&gt;(1-4 bytes)&lt;/span&gt;&lt;/div&gt;&lt;div style=&quot;text-align: justify; line-height: 150%;&quot;&gt;&lt;span style=&quot;background-color: initial;&quot;&gt;type: &lt;/span&gt;&lt;span style=&quot;background-color: initial;&quot;&gt;&lt;span style=&quot;font-weight: normal;&quot;&gt;varint&lt;/span&gt;&amp;nbsp; &amp;nbsp;pos: &lt;span style=&quot;font-weight: 400;&quot;&gt;28&lt;/span&gt;&lt;/span&gt;&lt;/div&gt;&lt;div style=&quot;text-align: justify; line-height: 150%;&quot;&gt;&lt;span style=&quot;background-color: initial;&quot;&gt;binary:&amp;nbsp;&lt;/span&gt;&lt;span style=&quot;font-weight: normal;&quot;&gt;0x00&lt;/span&gt;&lt;/div&gt;&lt;div style=&quot;text-align: justify; line-height: 150%;&quot;&gt;&lt;span style=&quot;background-color: initial;&quot;&gt;value: &lt;span style=&quot;font-weight: 400;&quot;&gt;0&lt;/span&gt;&lt;/span&gt;&lt;/div&gt;" style="rounded=0;whiteSpace=wrap;html=1;fillColor=#A6B5A5;strokeColor=#6c8ebf;align=center;fontStyle=1" parent="1" vertex="1">
          <mxGeometry x="781" y="680" width="150" height="100" as="geometry" />
        </mxCell>
        <mxCell id="Qu5GgFM-KOHoeXPj7MdU-31" value="&lt;div style=&quot;text-align: justify;&quot;&gt;&lt;b style=&quot;background-color: initial; border-color: var(--border-color);&quot;&gt;&lt;b style=&quot;text-align: justify; background-color: initial;&quot;&gt;signature (0 bytes)&lt;/b&gt;&lt;/b&gt;&lt;/div&gt;&lt;div style=&quot;text-align: justify; line-height: 150%;&quot;&gt;&lt;b style=&quot;font-weight: bold; background-color: initial;&quot;&gt;type: &lt;/b&gt;&lt;span style=&quot;background-color: initial;&quot;&gt;string&amp;nbsp; &amp;nbsp;&lt;b&gt;pos:&lt;/b&gt;&amp;nbsp;NA&lt;/span&gt;&lt;/div&gt;&lt;div style=&quot;text-align: justify; line-height: 150%;&quot;&gt;&lt;b style=&quot;font-weight: bold; background-color: initial;&quot;&gt;binary: -&lt;/b&gt;&lt;/div&gt;&lt;div style=&quot;text-align: justify; line-height: 150%;&quot;&gt;&lt;b style=&quot;font-weight: bold; background-color: initial;&quot;&gt;value:&lt;/b&gt;&lt;span style=&quot;background-color: initial;&quot;&gt; null&lt;/span&gt;&lt;/div&gt;" style="rounded=0;whiteSpace=wrap;html=1;fillColor=#d5e8d4;strokeColor=#82b366;align=center;" parent="1" vertex="1">
          <mxGeometry x="931" y="680" width="130" height="100" as="geometry" />
        </mxCell>
        <mxCell id="Qu5GgFM-KOHoeXPj7MdU-32" value="&lt;div style=&quot;text-align: justify; line-height: 150%;&quot;&gt;&lt;span style=&quot;background-color: initial;&quot;&gt;length of word(1-4 bytes)&lt;/span&gt;&lt;/div&gt;&lt;div style=&quot;text-align: justify; line-height: 150%;&quot;&gt;&lt;span style=&quot;background-color: initial;&quot;&gt;type: &lt;/span&gt;&lt;span style=&quot;background-color: initial;&quot;&gt;varint&amp;nbsp; &amp;nbsp;pos: &lt;span style=&quot;font-weight: 400;&quot;&gt;29&lt;/span&gt;&lt;/span&gt;&lt;/div&gt;&lt;div style=&quot;text-align: justify; line-height: 150%;&quot;&gt;&lt;span style=&quot;background-color: initial;&quot;&gt;binary:&amp;nbsp;&lt;/span&gt;&lt;span style=&quot;font-weight: normal;&quot;&gt;0x13&lt;/span&gt;&lt;/div&gt;&lt;div style=&quot;text-align: justify; line-height: 150%;&quot;&gt;&lt;span style=&quot;background-color: initial;&quot;&gt;value: &lt;span style=&quot;font-weight: normal;&quot;&gt;19&lt;/span&gt;&lt;/span&gt;&lt;/div&gt;" style="rounded=0;whiteSpace=wrap;html=1;fillColor=#A6B5A5;strokeColor=#6c8ebf;align=center;fontStyle=1" parent="1" vertex="1">
          <mxGeometry x="60" y="787" width="150" height="100" as="geometry" />
        </mxCell>
        <mxCell id="Qu5GgFM-KOHoeXPj7MdU-33" value="&lt;div style=&quot;text-align: justify;&quot;&gt;&lt;b style=&quot;background-color: initial; border-color: var(--border-color);&quot;&gt;param_name&lt;b style=&quot;text-align: justify; background-color: initial;&quot;&gt;&amp;nbsp;(38 bytes)&lt;/b&gt;&lt;/b&gt;&lt;/div&gt;&lt;div style=&quot;text-align: justify; line-height: 150%;&quot;&gt;&lt;b style=&quot;font-weight: bold; background-color: initial;&quot;&gt;type: &lt;/b&gt;&lt;span style=&quot;background-color: initial;&quot;&gt;string&amp;nbsp; &amp;nbsp;&lt;b&gt;pos:&lt;/b&gt;&amp;nbsp;30&lt;/span&gt;&lt;/div&gt;&lt;div style=&quot;text-align: justify; line-height: 150%;&quot;&gt;&lt;b style=&quot;font-weight: bold; background-color: initial;&quot;&gt;binary:&amp;nbsp;&lt;/b&gt;0x00 0x74 ... 0x00 0x64&lt;/div&gt;&lt;div style=&quot;text-align: justify; line-height: 150%;&quot;&gt;&lt;b style=&quot;font-weight: bold; background-color: initial;&quot;&gt;value:&amp;nbsp;&lt;/b&gt;tmus.transaction.id&lt;/div&gt;" style="rounded=0;whiteSpace=wrap;html=1;fillColor=#d5e8d4;strokeColor=#82b366;align=center;" parent="1" vertex="1">
          <mxGeometry x="210" y="787" width="180" height="100" as="geometry" />
        </mxCell>
        <mxCell id="Qu5GgFM-KOHoeXPj7MdU-34" value="&lt;div style=&quot;text-align: justify;&quot;&gt;&lt;b style=&quot;background-color: initial; border-color: var(--border-color);&quot;&gt;param_index&lt;b style=&quot;text-align: justify; background-color: initial;&quot;&gt;&amp;nbsp;(1 byte)&lt;/b&gt;&lt;/b&gt;&lt;/div&gt;&lt;div style=&quot;text-align: justify; line-height: 150%;&quot;&gt;&lt;b style=&quot;font-weight: bold; background-color: initial;&quot;&gt;type: &lt;/b&gt;&lt;span style=&quot;background-color: initial;&quot;&gt;byte&amp;nbsp;&lt;/span&gt;&lt;span style=&quot;background-color: initial;&quot;&gt;&lt;b&gt;pos:&lt;/b&gt;&amp;nbsp;67&lt;/span&gt;&lt;/div&gt;&lt;div style=&quot;text-align: justify; line-height: 150%;&quot;&gt;&lt;b style=&quot;font-weight: bold; background-color: initial;&quot;&gt;binary:&amp;nbsp;&lt;/b&gt;0x01&lt;/div&gt;&lt;div style=&quot;text-align: justify; line-height: 150%;&quot;&gt;&lt;b style=&quot;font-weight: bold; background-color: initial;&quot;&gt;value: 1&lt;/b&gt;&lt;/div&gt;" style="rounded=0;whiteSpace=wrap;html=1;fillColor=#d5e8d4;strokeColor=#82b366;align=center;" parent="1" vertex="1">
          <mxGeometry x="390" y="787" width="130" height="100" as="geometry" />
        </mxCell>
        <mxCell id="Qu5GgFM-KOHoeXPj7MdU-35" value="&lt;div style=&quot;text-align: justify;&quot;&gt;&lt;b style=&quot;background-color: initial; border-color: var(--border-color);&quot;&gt;param_list&amp;nbsp;&lt;b style=&quot;text-align: justify; background-color: initial;&quot;&gt;(1 byte)&lt;/b&gt;&lt;/b&gt;&lt;/div&gt;&lt;div style=&quot;text-align: justify; line-height: 150%;&quot;&gt;&lt;b style=&quot;font-weight: bold; background-color: initial;&quot;&gt;type: &lt;/b&gt;&lt;span style=&quot;background-color: initial;&quot;&gt;byte&amp;nbsp;&lt;b&gt;pos:&lt;/b&gt;&amp;nbsp;68&lt;/span&gt;&lt;/div&gt;&lt;div style=&quot;text-align: justify; line-height: 150%;&quot;&gt;&lt;b style=&quot;font-weight: bold; background-color: initial;&quot;&gt;binary:&amp;nbsp;&lt;/b&gt;0x01&lt;/div&gt;&lt;div style=&quot;text-align: justify; line-height: 150%;&quot;&gt;&lt;b style=&quot;font-weight: bold; background-color: initial;&quot;&gt;value: &lt;/b&gt;&lt;span style=&quot;background-color: initial;&quot;&gt;1&lt;/span&gt;&lt;/div&gt;" style="rounded=0;whiteSpace=wrap;html=1;fillColor=#d5e8d4;strokeColor=#82b366;align=center;" parent="1" vertex="1">
          <mxGeometry x="520" y="787" width="120" height="100" as="geometry" />
        </mxCell>
        <mxCell id="Qu5GgFM-KOHoeXPj7MdU-36" value="&lt;div style=&quot;text-align: justify;&quot;&gt;&lt;b style=&quot;background-color: initial; border-color: var(--border-color);&quot;&gt;param_order&lt;b style=&quot;text-align: justify; background-color: initial;&quot;&gt;(1-4 byte)&lt;/b&gt;&lt;/b&gt;&lt;/div&gt;&lt;div style=&quot;text-align: justify; line-height: 150%;&quot;&gt;&lt;b style=&quot;font-weight: bold; background-color: initial;&quot;&gt;type: &lt;/b&gt;&lt;span style=&quot;background-color: initial;&quot;&gt;varint&amp;nbsp; &amp;nbsp;&lt;b&gt;pos:&lt;/b&gt;&amp;nbsp;69&lt;/span&gt;&lt;/div&gt;&lt;div style=&quot;text-align: justify; line-height: 150%;&quot;&gt;&lt;b style=&quot;font-weight: bold; background-color: initial;&quot;&gt;binary:&amp;nbsp;&lt;/b&gt;0x64&lt;/div&gt;&lt;div style=&quot;text-align: justify; line-height: 150%;&quot;&gt;&lt;b style=&quot;font-weight: bold; background-color: initial;&quot;&gt;value:&amp;nbsp;&lt;/b&gt;100&lt;/div&gt;" style="rounded=0;whiteSpace=wrap;html=1;fillColor=#d5e8d4;strokeColor=#82b366;align=center;" parent="1" vertex="1">
          <mxGeometry x="640" y="787" width="140" height="100" as="geometry" />
        </mxCell>
        <mxCell id="Qu5GgFM-KOHoeXPj7MdU-37" value="&lt;div style=&quot;text-align: justify; line-height: 150%;&quot;&gt;&lt;span style=&quot;background-color: initial;&quot;&gt;length of signature&lt;/span&gt;&lt;/div&gt;&lt;div style=&quot;text-align: justify; line-height: 150%;&quot;&gt;&lt;span style=&quot;background-color: initial;&quot;&gt;(1-4 bytes)&lt;/span&gt;&lt;/div&gt;&lt;div style=&quot;text-align: justify; line-height: 150%;&quot;&gt;&lt;span style=&quot;background-color: initial;&quot;&gt;type: &lt;/span&gt;&lt;span style=&quot;background-color: initial;&quot;&gt;&lt;span style=&quot;font-weight: normal;&quot;&gt;varint&lt;/span&gt;&amp;nbsp; &amp;nbsp;pos: &lt;span style=&quot;font-weight: 400;&quot;&gt;70&lt;/span&gt;&lt;/span&gt;&lt;/div&gt;&lt;div style=&quot;text-align: justify; line-height: 150%;&quot;&gt;&lt;span style=&quot;background-color: initial;&quot;&gt;binary:&amp;nbsp;&lt;/span&gt;&lt;span style=&quot;font-weight: normal;&quot;&gt;0x00&lt;/span&gt;&lt;/div&gt;&lt;div style=&quot;text-align: justify; line-height: 150%;&quot;&gt;&lt;span style=&quot;background-color: initial;&quot;&gt;value: &lt;span style=&quot;font-weight: 400;&quot;&gt;0&lt;/span&gt;&lt;/span&gt;&lt;/div&gt;" style="rounded=0;whiteSpace=wrap;html=1;fillColor=#A6B5A5;strokeColor=#6c8ebf;align=center;fontStyle=1" parent="1" vertex="1">
          <mxGeometry x="781" y="787" width="150" height="100" as="geometry" />
        </mxCell>
        <mxCell id="Qu5GgFM-KOHoeXPj7MdU-38" value="&lt;div style=&quot;text-align: justify;&quot;&gt;&lt;b style=&quot;background-color: initial; border-color: var(--border-color);&quot;&gt;&lt;b style=&quot;text-align: justify; background-color: initial;&quot;&gt;signature (0 bytes)&lt;/b&gt;&lt;/b&gt;&lt;/div&gt;&lt;div style=&quot;text-align: justify; line-height: 150%;&quot;&gt;&lt;b style=&quot;font-weight: bold; background-color: initial;&quot;&gt;type: &lt;/b&gt;&lt;span style=&quot;background-color: initial;&quot;&gt;string&amp;nbsp; &amp;nbsp;&lt;b&gt;pos:&lt;/b&gt;&amp;nbsp;NA&lt;/span&gt;&lt;/div&gt;&lt;div style=&quot;text-align: justify; line-height: 150%;&quot;&gt;&lt;b style=&quot;font-weight: bold; background-color: initial;&quot;&gt;binary: -&lt;/b&gt;&lt;/div&gt;&lt;div style=&quot;text-align: justify; line-height: 150%;&quot;&gt;&lt;b style=&quot;font-weight: bold; background-color: initial;&quot;&gt;value:&lt;/b&gt;&lt;span style=&quot;background-color: initial;&quot;&gt; null&lt;/span&gt;&lt;/div&gt;" style="rounded=0;whiteSpace=wrap;html=1;fillColor=#d5e8d4;strokeColor=#82b366;align=center;" parent="1" vertex="1">
          <mxGeometry x="931" y="787" width="130" height="100" as="geometry" />
        </mxCell>
        <mxCell id="Qu5GgFM-KOHoeXPj7MdU-39" value="" style="rounded=0;whiteSpace=wrap;html=1;fillColor=#dae8fc;strokeColor=#6c8ebf;" parent="1" vertex="1">
          <mxGeometry x="51" y="950" width="1020" height="60" as="geometry" />
        </mxCell>
        <mxCell id="Qu5GgFM-KOHoeXPj7MdU-40" value="&lt;b&gt;Phrase #n&lt;/b&gt;" style="text;html=1;strokeColor=none;fillColor=none;align=center;verticalAlign=middle;whiteSpace=wrap;rounded=0;" parent="1" vertex="1">
          <mxGeometry x="952.0046153846152" y="920" width="134.6153846153846" height="113.33333333333334" as="geometry" />
        </mxCell>
      </root>
    </mxGraphModel>
  </diagram>
</mxfile>
